<svg viewBox="0 0 128 128" xmlns="http://www.w3.org/2000/svg">
  <defs>
    <linearGradient id="grad" x1="0" x2="1" y1="0" y2="0">
      <stop offset="0%" stop-color="#007c66"/>
      <stop offset="100%" stop-color="#6fe4b7"/>
    </linearGradient>
  </defs>
  <rect x="4" y="4" width="120" height="120" rx="8" fill="url(#grad)"/>
  <rect x="12" y="28" width="104" height="88" rx="4" fill="white"/>
  <g fill="#f2f2f2">
    <!-- 5x4 Grid -->
    <circle cx="24" cy="40" r="4"/>
    <circle cx="40" cy="40" r="4"/>
    <circle cx="56" cy="40" r="4"/>
    <circle cx="72" cy="40" r="4"/>
    <circle cx="88" cy="40" r="4"/>
    <circle cx="24" cy="56" r="4"/>
    <circle cx="40" cy="56" r="4"/>
    <circle cx="56" cy="56" r="4"/>
    <circle cx="72" cy="56" r="4"/>
    <circle cx="88" cy="56" r="4"/>
    <circle cx="24" cy="72" r="4"/>
    <circle cx="40" cy="72" r="4"/>
    <circle cx="56" cy="72" r="4"/>
    <circle cx="72" cy="72" r="4"/>
    <circle cx="88" cy="72" r="4"/>
    <circle cx="24" cy="88" r="4"/>
    <circle cx="40" cy="88" r="4"/>
    <circle cx="56" cy="88" r="4"/>
    <circle cx="72" cy="88" r="4"/>
    <circle cx="88" cy="88" r="4"/>
  </g>
  <!-- Checkmark -->
  <path d="M40 70 L58 88 L88 50" fill="none" stroke="url(#grad)" stroke-width="12" stroke-linecap="round" stroke-linejoin="round"/>
  <!-- Top bar indicators -->
  <circle cx="28" cy="16" r="6" fill="url(#grad)"/>
  <circle cx="48" cy="16" r="6" fill="url(#grad)"/>
  <circle cx="68" cy="16" r="6" fill="url(#grad)"/>
  <circle cx="88" cy="16" r="6" fill="url(#grad)"/>
</svg>